<svg xmlns="http://www.w3.org/2000/svg" viewBox="0 0 64 64" fill="none">
  <rect width="64" height="64" rx="12" fill="#0A0A0B"/>
  <path d="M44 6 C 51 7 57 13 57 21 C 57 30 49 38 39 38 C 35 38 31 35 31 31 C 31 22 35 11 44 6 Z" fill="#1FE07A"/>
  <path d="M37 38 C 37 44 35 48 32 52" stroke="#1FE07A" stroke-width="2.5" stroke-linecap="round" opacity="0.5"/>
  <path d="M 16 50 C 16 46 19 43 23 43 C 28 43 30 47 32 50 C 34 53 36 57 41 57 C 45 57 48 54 48 50 C 48 46 45 43 41 43 C 36 43 34 47 32 50 C 30 53 28 57 23 57 C 19 57 16 54 16 50 Z" stroke="#1FE07A" stroke-width="2.6" fill="none" stroke-linecap="round" stroke-linejoin="round"/>
</svg>
